<svg id="Layer_1" data-name="Layer 1" xmlns="http://www.w3.org/2000/svg" viewBox="0 0 1000 793.9"><defs><style>.cls-1{fill:#00aeef;}.cls-2{fill:#f7941d;}.cls-3{fill:#fff;}.cls-4,.cls-6{fill:#72c8f1;}.cls-5{fill:#2e3192;}.cls-6{stroke:#72c8f1;stroke-miterlimit:10;stroke-width:3.91px;}</style></defs><title>Bivi FINAL</title><path class="cls-1" d="M479.79,587.64q-4.32,9.5-15.26,13.43T435.45,605q-18.14,0-29.08-3.93t-15.26-13.76A61.64,61.64,0,0,1,385.94,570a216.27,216.27,0,0,1-.86-22.6,216.51,216.51,0,0,1,.86-22.6A58.84,58.84,0,0,1,390.83,508q8.06-17.68,44.91-17.69,36.27,0,43.75,17.69,4.61,9.83,5.47,17.36a216,216,0,0,1,.86,22.6,215.76,215.76,0,0,1-.86,22.6A57.87,57.87,0,0,1,479.79,587.64ZM385.07,709.15a216.55,216.55,0,0,1,.86-22.6,66.81,66.81,0,0,1,4.89-17.36q8.06-17,44.91-17,27.63,0,39.15,11.14,9.78,9.18,10.36,28.16.57,6.56.58,19V939.73a215.76,215.76,0,0,1-.86,22.6q-.87,7.54-5.47,17.36-7.49,17-44.33,17-36.28,0-44.34-17.69a67.16,67.16,0,0,1-4.89-17,214.92,214.92,0,0,1-.86-22.93Z" transform="translate(0 -206.1)"/><path class="cls-1" d="M837.64,659.37q29.93,20.31,29.94,43.24,0,13.11-11.52,36L736.87,971.18q-5.76,11.14-18.43,20t-25,8.85a44.51,44.51,0,0,1-23.61-6.88Q658.56,986.24,654,979l-5.18-7.21L529,738.63Q517.49,717,517.5,703.25q0-23.58,29.94-43.89Q569.32,645,582,645t19.86,8.84q7.2,8.85,15.26,26.53L692.54,845.4,768,680.33q6.33-12.44,9.5-18a40.8,40.8,0,0,1,10.08-11.14q6.91-5.56,18.43-5.57T837.64,659.37Z" transform="translate(0 -206.1)"/><path class="cls-1" d="M994,587.64q-4.32,9.5-15.26,13.43T949.62,605q-18.14,0-29.08-3.93t-15.26-13.76A61.72,61.72,0,0,1,900.1,570a216.91,216.91,0,0,1-.86-22.6,217.15,217.15,0,0,1,.86-22.6A58.85,58.85,0,0,1,905,508q8.06-17.68,44.91-17.69,36.27,0,43.76,17.69,4.61,9.83,5.47,17.36A217.1,217.1,0,0,1,1000,548a216.82,216.82,0,0,1-.86,22.6A57.89,57.89,0,0,1,994,587.64ZM899.24,709.15a217.19,217.19,0,0,1,.86-22.6,66.83,66.83,0,0,1,4.9-17.36q8.06-17,44.91-17,27.64,0,39.15,11.14,9.78,9.18,10.36,28.16.57,6.56.58,19V939.73a216.82,216.82,0,0,1-.86,22.6q-.87,7.54-5.47,17.36-7.49,17-44.33,17-36.27,0-44.33-17.69a67.17,67.17,0,0,1-4.9-17,215.55,215.55,0,0,1-.86-22.93Z" transform="translate(0 -206.1)"/><polygon class="cls-2" points="361.08 474.51 288.02 401.45 246.18 443.29 204.35 401.45 131.29 474.51 204.35 547.57 246.18 505.74 288.01 547.57 361.08 474.51"/><path class="cls-1" d="M319.39,521.18h0a159.7,159.7,0,0,0-159.7-159.7H83.64A83.64,83.64,0,0,0,0,445.12V916.36A83.64,83.64,0,0,0,83.64,1000h77.08A158.67,158.67,0,0,0,319.39,841.33h0a160.69,160.69,0,0,0-155-160.58A159.66,159.66,0,0,0,319.39,521.18Z" transform="translate(0 -206.1)"/><circle class="cls-3" cx="160.39" cy="313.94" r="107.19"/><path class="cls-4" d="M241.69,365l-36.06-77.15a17,17,0,0,0-15.24-9.81l-61.75-.62A17,17,0,0,0,113.2,287L75.6,363.37a17,17,0,0,0,11.33,24.06l67.55,16.08a17,17,0,0,0,7.54.08l67.86-14.71A17,17,0,0,0,241.69,365Z" transform="translate(0 -206.1)"/><path class="cls-5" d="M117.28,207.57h189a0,0,0,0,1,0,0v0A104.18,104.18,0,0,1,202.11,311.75h-189a0,0,0,0,1,0,0v0A104.18,104.18,0,0,1,117.28,207.57Z" transform="translate(-2.61 -204.48) rotate(-0.58)"/><line class="cls-4" x1="159.7" y1="53.56" x2="278.24" y2="71.83"/><path class="cls-4" d="M157.72,266.83l103.58,16,15,2.31c4,.62,8-1,9.15-5.2,1-3.52-1.23-8.54-5.2-9.15l-103.58-16-15-2.31c-4-.62-8,1-9.15,5.2-1,3.52,1.23,8.54,5.2,9.15Z" transform="translate(0 -206.1)"/><path class="cls-1" d="M159.7,493.84a39.89,39.89,0,0,1,39.29,33,8.42,8.42,0,0,0,8.37,6.84h0a8.54,8.54,0,0,0,8.44-10,57,57,0,0,0-112.19,0,8.54,8.54,0,0,0,8.44,10h0a8.42,8.42,0,0,0,8.37-6.84A39.89,39.89,0,0,1,159.7,493.84Z" transform="translate(0 -206.1)"/><path class="cls-1" d="M159.7,501.05a33,33,0,0,1,27.81,15.52c3.18,5.19,3.26,11.25,6.12,16.42a15.83,15.83,0,0,0,29.07-4.18c1.39-5.86-.95-12.66-3.09-18.09a65.34,65.34,0,0,0-21.51-28.39c-20-15.06-47.7-16.81-69.56-4.74a64.4,64.4,0,0,0-24.84,24.76c-5.35,9.61-12,25.23-2.45,34.29a16,16,0,0,0,18.82,2.09c7.08-4.14,6.69-11.17,9.54-17.86a33.16,33.16,0,0,1,30.1-19.82c9.28-.16,9.31-14.6,0-14.43-20.88.37-39.55,14-45.33,34.29-.35,1.21-.72,7.46-3.39,5.15-1.61-1.4,2-9.73,2.64-11.25a49.79,49.79,0,0,1,89-6.32A49.28,49.28,0,0,1,207.8,521c.26,1,2.12,7-1.21,5.33-1.22-.62-1.38-4.8-1.76-6.06a50.8,50.8,0,0,0-3.24-8,45.75,45.75,0,0,0-10-13.13,48.24,48.24,0,0,0-31.91-12.48C150.4,486.45,150.4,500.89,159.7,501.05Z" transform="translate(0 -206.1)"/><path class="cls-6" d="M271.52,337.32l-14.4,25.33a7.74,7.74,0,0,0,6.73,11.56h28.79a7.74,7.74,0,0,0,6.73-11.56L285,337.32A7.74,7.74,0,0,0,271.52,337.32Z" transform="translate(0 -206.1)"/><line class="cls-4" x1="278.24" y1="71.83" x2="278.26" y2="134.61"/><path class="cls-4" d="M270.8,277.93l0,62.78c0,9.58,14.89,9.59,14.88,0l0-62.78c0-9.58-14.89-9.59-14.88,0Z" transform="translate(0 -206.1)"/><rect class="cls-5" x="102.07" y="534.81" width="102.07" height="145.5" rx="16.25" ry="16.25"/><rect class="cls-3" x="107.6" y="534.81" width="102.07" height="145.5" rx="16.25" ry="16.25"/><rect class="cls-5" x="124.77" y="534.81" width="102.07" height="145.5" rx="16.25" ry="16.25"/><path class="cls-4" d="M96.35,754.85A2.48,2.48,0,0,0,94.48,759l7.54,8.67-7.54,8.67a2.48,2.48,0,0,0,1.87,4.11h20.56V754.85Z" transform="translate(0 -206.1)"/><path class="cls-4" d="M184.29,591.75h69.26a0,0,0,0,1,0,0v0A133.64,133.64,0,0,1,119.91,725.39H50.65a0,0,0,0,1,0,0v0A133.64,133.64,0,0,1,184.29,591.75Z"/></svg>